<svg xmlns="http://www.w3.org/2000/svg" xmlns:xlink="http://www.w3.org/1999/xlink" width="295.997" height="240.849" viewBox="0 0 295.997 240.849">
  <defs>
    <radialGradient id="radial-gradient" cx="0.432" cy="0.5" r="0.5" gradientUnits="objectBoundingBox">
      <stop offset="0" stop-color="#ff931e"/>
      <stop offset="1" stop-color="#ff2a9b"/>
    </radialGradient>
  </defs>
  <g id="Group_5" data-name="Group 5" transform="translate(-1119.369 -280.917)">
    <g id="Group_4" data-name="Group 4" transform="translate(185 35)">
      <g id="Group_3" data-name="Group 3" transform="translate(-9 1)">
        <g id="Group_2" data-name="Group 2" transform="translate(359.771 -20.594)">
          <path id="Path_3" data-name="Path 3" d="M907.12,426.638l2.863-3.526,2.636-3.168L915,417.171l2.29-2.576,1.755-1.936,2.311-2.477,1.846-1.932,1.706-1.758,2.107-2.115,2.052-2,1.973-1.87,2.32-2.16,1.7-1.538,1.25-1.111L937.9,394.3l1.78-1.5,2.358-1.97,1.82-1.453,1.629-1.282,1.444-1.118,1.568-1.19,1.312-.967,1.648-1.193,1.287-.9,1.667-1.154,1.595-1.08,1.542-1.008,1.582-1.023,1.986-1.234,1.4-.841,2.179-1.272,2.3-1.3,1.438-.779,1.686-.882,1.614-.829,1.243-.6,1.7-.818,1.429-.653,1.507-.666,2.308-.991,1.652-.653,2.06-.8,1.507-.546,1.548-.537,1.388-.458,2-.618,2.174-.622,2.958-.758,2.607-.587,2.623-.505,2.237-.363,1.664-.232,1.482-.17,1.513-.157,1.764-.138,1.237-.075,1.529-.063,1.375-.031h1.84l1.394.031,1.451.1,1.245.066,1.049.082,1.03.107,2.034.254,1.463.207,1.727.3,1.92.394,1.746.414,2.576.711,2.229.71,2.077.744,1.57.622,1.576.684,1.984.917,2.311,1.21,1.865,1.036,1.488.917,1.677,1.083,1.463,1.011,1.275.948,1.3,1,1.381,1.118.873.747.87.766,1.422,1.325,1.143,1.111,1.084,1.137,1.261,1.332,1.212,1.375,1.105,1.319,1.439,1.807,1.1,1.458,1.03,1.732.5.879.509.973,1.089,2.3.8,1.915.612,1.7.446,1.325.515,1.761.371,1.407.461,2.041.424,2.2.264,1.664.151,1.137.163,1.457.126,1.366.1,1.482.094,1.774.056,2.14-.038,2.76-.119,3.353-.312,3.064-.4,2.891-.465,2.678-.408,2.139-.62,2.833-.784,3.2-.877,3.25-1.026,3.036-1.617,4.1-2.13,4.811-1.715,3.441-1.538,3.037-1.459,2.406-1.42,2.406-1.854,3-1.735,2.721-2.883,4.174-2.669,3.373-1.835,2.1-1.493,1.718-1.056.99-.85.725-.963.725-1,.725-1.463.9-1.312.75-1.65.825-1.4.6-1.45.546-2.269.695-1.85.438-2.219.387-3.225.325-3.194-.062-2.575-.2-3.009-.6-2.562-.85-2.6-1.147-2.138-1.2-2.094-1.456-1.512-1.212-1.412-1.325-2.037-2.25-1.019-1.328-1.5-2.425-1.3-2.713-.694-1.959-.487-1.638-.413-1.763-.175-1.125-.15-1-.162-1.4-.075-1.312-.072-1.884.072-2.231.309-2.584.5-2.5.944-3.156,1.313-2.975,1.622-2.925,1.581-2.516,1.625-2.375,2.162-2.909,1.963-2.475,2.141-2.788,1.825-2.487,1.956-2.834,1.706-2.841s10.709-17.8-8-7.086-35.567,32.978-35.567,32.978l-1.558,2.164-.584.743-.733.935-.721.946-.7.913-.6.789-.5.648-.414.552-.446.627-.606.8-.53.743-.468.648-.587.842-.541.754-.585.839-.478.69-.626.9-.627.914-.432.645-.669,1.03-.648,1.009-.638,1-.616.924-.565.908-.521.839-.509.818-.626,1.041-.553.892-.552,1.009-.8,1.4-.488.85-.722,1.285-.542,1.02-.68,1.264-1.136,2.265-.51,1.02-.542,1.1-.877,1.936-.594,1.306-.68,1.561-.9,2.175-.574,1.455-.51,1.4-.7,1.986-.457,1.381-.393,1.232-.4,1.341-.414,1.53-.489,1.827-.468,1.923-.371,1.71-.308,1.6-.287,1.763-.191,1.328-.213,1.625-.146,1.721-.106,1.837v1.678l.024,2.138.138,1.827.18,1.593.265,1.54.521,2.146.436,1.381.462,1.256.52,1.158.457.861.531.924.733,1.019.626.765.956.892.86.775,1.129.844.913.637.861.489,1.062.605,1.222.637,1.4.648,1.444.563,1.981.693,1.955.531,1.466.351,1.455.287,1.486.245,2.186.2,1.911.17,1.6.053h1.519l2.4-.117,2.05-.17,2.214-.266,1.7-.244,2.188-.414,2.123-.446,2.008-.483,2.007-.574,2.05-.605,2.23-.765,2.092-.754,2.146-.85,1.667-.68,1.532-.648,1.668-.712,1.8-.8,1.646-.775,2.241-1.1,2.008-1.009,1.71-.871,1.442-.759,1.466-.829,1.752-.956,1.54-.892,2.252-1.307,1.189-.733,1.371-.839,1.63-1.036,1.827-1.179,1.371-.892,1.253-.86,2.448-1.66s.865-.613,1.5-1.073,1.031-.765,1.031-.765l.86-.638,1.009-.733.781-.589,1.327-.967,1.37-1.041,1.455-1.126.775-.595,1.705-1.37,3.2-2.218,5.083-3.77,3.869-2.884,6.364-4.885,5.756-4.41,7.764-6.047,18.854-15.088,14.4-12.109,55.619-49.356-28.522,45.57L1121.24,475.88l-36.41,42.941-3.222,3.394-4,4.131-3.922,4.013-3.306,3.347-3.25,3.263-2.95,2.925-3.353,3.259-4.469,4.3-3.85,3.65-3.772,3.528L1044.2,558.8l-3.325,2.987-3.629,3.18-3.893,3.138-3.687,2.781-6.078,4.422-5.344,3.641-5.562,3.688-7.638,4.547-7.118,3.276L990.4,593.5l-6.816,2.414-6.208,1.939-4.536,1.178-4.632.868-4.842.756-5.753.384-6.18.085-5.014-.193-5.545-.432-4.135-.551-4.879-.855-4.941-1.15-4.229-1.2-3.826-1.28-3.748-1.459-3.792-1.679-5.028-2.62-3.629-2.191-2.574-1.7-2.135-1.532L896.279,583l-2.49-2.085-2.16-1.934-2.615-2.578-1.972-2.138-1.852-2.154-1.918-2.421-2.609-3.7-1.595-2.553-1.6-2.747-1.455-2.821-1.105-2.323-1.046-2.427-1.18-3.044-.9-2.639-.994-3.273-.892-3.518-.685-3.218-.446-2.52-.361-2.51-.374-3.235-.276-3.626-.11-2.339-.038-1.846v-2.921l.1-2.991.223-3.494.38-3.851.471-3.593.535-3.265.95-4.713,1.039-4.3,1.132-4.058,1.042-3.361.98-2.89,1.328-3.578,1.4-3.52,1.187-2.76,1.419-3.111,1.868-3.824,2.05-3.923,1.829-3.257,2.17-3.631,1.876-3.008,2.378-3.68,2.016-3.033,2.381-3.461,2.314-3.279,2.91-4,3.049-4.027Z" transform="translate(-284 -94.764)" fill="url(#radial-gradient)"/>
          <path id="Path_4" data-name="Path 4" d="M795.177,489l.637-.85.563-.725.625-.775.575-.687.5-.575.625-.725.487-.513.513-.481.612-.481.625-.362.75-.312.613-.212.675-.15.788-.075h.662l.775.163,1.35.389,2.514.887,23.823,10.436,38.488-34.437-27.946,43.115s12.33,17.08,12.727,18.188l.725,1.087.7,1.091.487.713.538.912.512.8.45.75.288.519.313.588.3.612.275.552.225.544.161.555.089.313.075.546v.942l-.075.65-.162.7-.213.641-.2.475-.275.525-.35.525-.463.625-.562.712-.562.713-.463.525-.362.425-.463.5-.437.513-.388.425-.406.425-24.133-28.428-3.9-3.416Z" transform="translate(8.218 -142.058)" fill="url(#radial-gradient)"/>
        </g>
      </g>
    </g>
  </g>
</svg>
